:SAMPLES-PER-SECOND 30
:FULLY-SPECIFIED
:DEGREES
301
root  35.7054 38.1814 -13.176 -12.8456 82.246 -23.7527
RightUpLeg  -40.8105 -9.75484 3.00735
RightLeg  42.3818 -4.99048 -5.2517
RightFoot  -3.75774 -0.407892 5.73616
RightToes  0.00048216 0.542163 -0.142577
Spine  48.9767 -2.13645 7.18734
Spine1  11.9709 3.66119 -7.71744
HEad  -22.193 -2.77714 -2.35991
LeftShoulder1  9.47956 -18.8497 -36.2783
LeftArm  -24.681 -35.3651 -20.396
LeftForeArm  17.2088 -10.4657 -3.95854
LeftHand  -0.25398 0.0180481 5.50724
RightShoulder  5.47283 14.3848 24.4217
RightArm  -15.2163 51.1576 29.1753
RightForeArm  5.42106 2.7238 7.27922
RightHand  -1.16182 3.3054 -15.7235
LeftUpLeg  -40.5768 25.5565 -9.42584
LeftLeg  15.0527 3.64644 -1.00942
LeftFoot  10.8648 -2.16154 10.6419
LeftToes  1.06243e-005 4.65856e-005 -8.18503e-006
302
root  36.3863 38.1425 -12.9648 -16.2212 83.4408 -29.0286
RightUpLeg  -42.1358 -11.4979 5.15859
RightLeg  28.9381 -2.1046 -1.58203
RightFoot  -1.85901 -0.7425 8.6559
RightToes  0.00048216 0.542163 -0.142577
Spine  51.4998 -2.69931 7.31909
Spine1  12.4169 3.78216 -8.12341
HEad  -25.415 -3.74145 -1.61059
LeftShoulder1  9.30093 -20.1182 -33.2686
LeftArm  -28.3426 -41.2444 -19.0895
LeftForeArm  16.4616 -8.90784 -3.24179
LeftHand  -0.25398 0.0180481 5.50724
RightShoulder  5.2859 14.6906 22.796
RightArm  -19.4371 54.4827 25.3134
RightForeArm  3.34889 0.930475 6.83445
RightHand  -1.25676 3.9108 -15.922
LeftUpLeg  -43.8904 26.4589 -11.8624
LeftLeg  17.6788 0.504961 -0.374204
LeftFoot  9.18045 -2.00284 10.7217
LeftToes  1.06243e-005 4.65856e-005 -8.18503e-006
303
root  37.0847 37.9309 -12.6418 -21.0609 85.9284 -35.9071
RightUpLeg  -43.766 -13.9999 6.67695
RightLeg  19.0005 1.51107 0.71655
RightFoot  2.86596 -1.04629 8.72616
RightToes  0.00048216 0.542163 -0.142577
Spine  53.6347 -3.20838 7.01484
Spine1  12.2911 3.15021 -7.4022
HEad  -28.0872 -4.83286 -0.970075
LeftShoulder1  9.15144 -21.4146 -30.5827
LeftArm  -31.5237 -46.4184 -17.0774
LeftForeArm  15.4325 -7.10179 -2.61109
LeftHand  -0.25398 0.0180481 5.50724
RightShoulder  5.07865 15.1282 20.883
RightArm  -24.2532 56.6354 20.6177
RightForeArm  1.90257 -0.397357 6.26909
RightHand  -1.30632 4.36296 -15.8029
LeftUpLeg  -46.8676 24.4543 -13.4942
LeftLeg  20.9603 -0.437038 0.252571
LeftFoot  7.15641 -1.78672 10.6678
LeftToes  1.06243e-005 4.65856e-005 -8.18503e-006
304
root  37.7251 37.677 -12.2464 -10.548 88.8857 -27.4662
RightUpLeg  -46.4684 -14.6937 6.82072
RightLeg  16.2422 1.66702 1.5757
RightFoot  7.81385 -0.512245 3.38019
RightToes  0.00048216 0.542163 -0.142577
Spine  55.899 -3.76418 7.36885
Spine1  11.5516 2.30583 -6.5286
HEad  -30.3141 -6.16175 -0.0226218
LeftShoulder1  9.07046 -22.8181 -28.2665
LeftArm  -34.4645 -51.356 -13.6884
LeftForeArm  15.1406 -5.04248 -2.34564
LeftHand  -0.25398 0.0180481 5.50724
RightShoulder  5.01945 15.5975 19.8259
RightArm  -29.6797 57.5214 14.4251
RightForeArm  0.249363 -0.99467 5.75658
RightHand  -1.25072 4.34198 -15.1778
LeftUpLeg  -49.0345 20.6144 -13.2491
LeftLeg  23.9811 0.568728 0.613502
LeftFoot  5.63295 -1.52247 9.93916
LeftToes  1.06243e-005 4.65856e-005 -8.18503e-006
305
root  38.3309 37.3644 -11.832 -130.461 88.4092 -149.425
RightUpLeg  -50.8576 -15.6985 8.89059
RightLeg  20.1644 2.19425 1.15837
RightFoot  9.56147 0.671149 -3.361
RightToes  0.00048216 0.542163 -0.142577
Spine  57.3371 -4.29968 8.80852
Spine1  11.9376 2.23362 -6.23716
HEad  -33.3409 -7.96504 1.2691
LeftShoulder1  8.97007 -24.4738 -25.7325
LeftArm  -38.8611 -56.8314 -8.85581
LeftForeArm  15.8766 -3.09351 -2.05893
LeftHand  -0.25398 0.0180481 5.50724
RightShoulder  4.9728 15.8991 19.1296
RightArm  -36.8625 57.802 5.9016
RightForeArm  -2.16013 -1.04256 5.17714
RightHand  -1.11354 4.02416 -13.9977
LeftUpLeg  -51.9618 17.8588 -12.5339
LeftLeg  27.8166 0.957295 0.88978
LeftFoot  3.75746 -1.2071 8.91528
LeftToes  1.06243e-005 4.65856e-005 -8.18503e-006
306
root  38.9498 37.0417 -11.4545 -142.572 86.9237 -163.836
RightUpLeg  -55.165 -15.752 11.0102
RightLeg  25.339 1.68452 0.590293
RightFoot  8.32531 1.2328 -6.76626
RightToes  0.00048216 0.542163 -0.142577
Spine  60.1092 -4.86722 9.99834
Spine1  10.1657 2.55281 -6.38866
HEad  -35.8593 -8.95116 1.99793
LeftShoulder1  8.83224 -25.1143 -24.4774
LeftArm  -44.4164 -61.2006 -2.23022
LeftForeArm  16.1193 -2.21981 -2.05659
LeftHand  -0.25398 0.0180481 5.50724
RightShoulder  4.96281 16.5993 18.1056
RightArm  -43.3703 57.3166 -1.76772
RightForeArm  -4.07838 -1.12135 4.53936
RightHand  -0.988249 3.88328 -12.6564
LeftUpLeg  -55.5726 16.4601 -11.5231
LeftLeg  31.8587 1.14207 1.11808
LeftFoot  1.58625 -0.958385 8.36662
LeftToes  1.06243e-005 4.65856e-005 -8.18503e-006
307
root  39.5908 36.7682 -11.1082 -134.195 85.9391 -158.207
RightUpLeg  -59.272 -15.7971 13.2748
RightLeg  29.1504 1.38651 0.60464
RightFoot  6.06883 1.21622 -7.64973
RightToes  0.00048216 0.542163 -0.142577
Spine  62.9134 -4.89117 10.5081
Spine1  8.09202 3.14747 -6.30196
HEad  -38.2484 -9.53422 2.30984
LeftShoulder1  8.766 -25.7839 -23.4861
LeftArm  -52.1032 -64.127 5.86743
LeftForeArm  14.9736 -2.2057 -1.74851
LeftHand  -0.25398 0.0180481 5.50724
RightShoulder  4.85614 17.2429 16.7095
RightArm  -50.0156 56.745 -9.06785
RightForeArm  -5.29006 -1.69027 3.64744
RightHand  -0.906114 4.10076 -11.3883
LeftUpLeg  -59.4935 16.0088 -10.9076
LeftLeg  35.1904 1.17257 1.25081
LeftFoot  -0.0153906 -0.800818 8.06144
LeftToes  1.06243e-005 4.65856e-005 -8.18503e-006
308
root  40.2366 36.5532 -10.7483 -134.679 85.4204 -161.797
RightUpLeg  -63.556 -16.4515 15.9442
RightLeg  31.8759 1.97325 1.07511
RightFoot  4.27375 1.25327 -8.90657
RightToes  0.00048216 0.542163 -0.142577
Spine  65.4951 -4.38146 10.1504
Spine1  5.81021 3.33745 -5.61879
HEad  -40.0238 -9.66562 2.63237
LeftShoulder1  8.72127 -26.6382 -22.4183
LeftArm  -60.803 -65.4635 14.8498
LeftForeArm  12.9598 -2.50234 -1.21503
LeftHand  -0.25398 0.0180481 5.50724
RightShoulder  4.71512 17.7047 15.4231
RightArm  -55.9394 56.1949 -15.3628
RightForeArm  -7.11211 -2.48182 2.80324
RightHand  -0.824817 4.27732 -10.2197
LeftUpLeg  -63.3523 15.6967 -11.0854
LeftLeg  37.6227 0.852025 1.07602
LeftFoot  -0.655865 -0.655042 7.03989
LeftToes  1.06243e-005 4.65856e-005 -8.18503e-006
